<?xml version="1.0" encoding="UTF-8" standalone="no"?>
<!-- Created with Inkscape (http://www.inkscape.org/) -->

<svg
   width="284.05386mm"
   height="307.26065mm"
   viewBox="0 0 284.05386 307.26065"
   version="1.1"
   id="svg1"
   xml:space="preserve"
   inkscape:export-filename="cobm_logo.svg"
   inkscape:export-xdpi="96"
   inkscape:export-ydpi="96"
   xmlns:inkscape="http://www.inkscape.org/namespaces/inkscape"
   xmlns:sodipodi="http://sodipodi.sourceforge.net/DTD/sodipodi-0.dtd"
   xmlns="http://www.w3.org/2000/svg"
   xmlns:svg="http://www.w3.org/2000/svg"><sodipodi:namedview
     id="namedview1"
     pagecolor="#ffffff"
     bordercolor="#000000"
     borderopacity="0.25"
     inkscape:showpageshadow="2"
     inkscape:pageopacity="0.0"
     inkscape:pagecheckerboard="0"
     inkscape:deskcolor="#d1d1d1"
     inkscape:document-units="mm"><inkscape:page
       x="0"
       y="0"
       width="284.05386"
       height="307.26065"
       id="page2"
       margin="0"
       bleed="0" /></sodipodi:namedview><defs
     id="defs1" /><g
     inkscape:label="Camada 1"
     inkscape:groupmode="layer"
     id="layer1"
     transform="translate(27.703541,28.521394)"><path
       style="fill:#d10101;fill-opacity:1"
       d="m 160.19898,278.64257 -21.73687,-0.13679 -1.67876,-1.5875 c -3.25771,-3.08062 -5.44844,-4.58925 -8.29334,-5.71115 -1.01864,-0.40171 -2.38422,-0.99307 -3.03462,-1.31415 -2.18035,-1.07636 -4.09373,-1.60164 -6.2258,-1.70918 -1.49333,-0.0753 -2.94892,-0.38276 -4.94276,-1.04396 -1.55436,-0.51545 -3.02164,-0.93718 -3.26064,-0.93718 -0.50489,0 -4.12075,-1.17171 -5.30536,-1.71919 -0.44482,-0.20558 -1.81404,-0.80321 -3.04271,-1.32807 -1.22867,-0.52486 -2.34705,-1.06598 -2.4853,-1.20248 -0.13824,-0.1365 -0.993474,-0.24818 -1.900504,-0.24818 h -1.64914 l -1.71551,1.69035 c -2.45738,2.42136 -2.63182,2.84929 -2.76231,6.77632 -0.0604,1.81901 -0.20851,3.41218 -0.32905,3.54038 -0.12236,0.13014 -0.60701,-0.1855 -1.09731,-0.71465 -1.0802,-1.1658 -1.75816,-1.42863 -4.27296,-1.65651 -3.67826,-0.33332 -6.59967,1.32078 -8.81534,4.99125 -0.54607,0.90461 -1.17733,1.78978 -1.40281,1.96705 -0.50654,0.39824 -2.56449,0.4414 -2.80099,0.0587 -0.0953,-0.15423 0.30904,-1.28563 0.89857,-2.51424 1.30817,-2.72629 1.62942,-4.08452 0.96608,-4.08452 -0.565,0 -5.534978,1.43862 -6.809064,1.97097 -3.328621,1.39078 -21.448156,1.23739 -31.955181,-0.27052 -1.673489,-0.24018 -4.590521,-0.52988 -6.482291,-0.6438 -1.891771,-0.11391 -4.21349,-0.3289 -5.159375,-0.47775 -0.945886,-0.14885 -3.596972,-0.42347 -5.891303,-0.61027 -2.294331,-0.18679 -4.303488,-0.42119 -4.464794,-0.52088 -0.211157,-0.1305 -0.173202,-0.83798 0.135543,-2.52649 0.614835,-3.3625 0.35744,-6.36771 -0.666453,-7.78115 -0.413553,-0.5709 -1.200765,-1.32134 -1.749359,-1.66765 -0.548595,-0.34631 -1.166811,-0.83374 -1.373816,-1.08316 -0.8993716,-1.08368 -5.4915666,-2.69287 -9.5307266,-3.33974 -2.740045,-0.43882 -4.576039,-1.11953 -6.179398,-2.29106 -2.560678,-1.87102 -3.78256,-3.86751 -3.476319,-5.68014 0.2216,-1.31164 -0.363291,-2.06586 -1.602052,-2.06586 -1.2388644,0 -5.5997934,1.50278 -6.7116714,2.31285 -1.473076,1.07322 -3.149324,2.95282 -4.160346,4.66505 -0.764283,1.29436 -0.94441,1.9021 -1.078275,3.63802 -0.182438,2.36582 -0.524697,2.63508 -1.724199,1.35647 -0.822038,-0.87625 -2.591414,-3.62973 -2.591414,-4.03273 0,-0.1583 -0.234719,-0.74792 -0.521598,-1.31025 -0.715264,-1.40203 -1.18182,-6.4216 -0.972776,-10.46587 0.198693,-3.844 1.532163,-9.35736 3.071643,-12.7 0.903264,-1.96124 1.862314,-4.38148 1.862314,-4.6997 0,-0.20771 0.251319,-0.60448 0.558486,-0.88169 0.525486,-0.47425 1.100038,-0.50534 9.723438,-0.52613 5.0407234,-0.0122 9.4405714,-0.0419 9.7774414,-0.0661 0.654345,-0.047 2.42398996,-1.73637 4.605681,-4.39663 0.721935,-0.88029 2.644638,-2.96975 4.272674,-4.64324 1.628036,-1.67349 3.608872,-3.81662 4.4018576,-4.7625 1.514123,-1.80607 6.689616,-7.18988 14.020838,-14.58518 2.401094,-2.42208 4.723908,-4.80447 5.161808,-5.2942 1.236316,-1.38264 5.672943,-5.50218 6.447062,-5.98629 1.287745,-0.80531 4.920808,-3.70579 5.820557,-4.64689 0.531075,-0.55548 0.892969,-1.20431 0.892969,-1.60098 0,-0.36684 -0.533363,-1.47691 -1.185252,-2.46683 -0.651888,-0.98991 -1.276656,-2.0975 -1.388371,-2.4613 -0.111716,-0.3638 -0.287504,-0.78052 -0.390639,-0.92604 -0.103136,-0.14552 -0.523074,-1.21709 -0.933197,-2.38125 -0.410123,-1.16417 -0.825502,-2.23573 -0.923065,-2.38125 -0.195598,-0.29175 -0.224686,-0.38745 -2.131045,-7.01146 -2.108189,-7.32531 -4.186771,-10.7192 -8.195827,-13.38207 -0.509323,-0.3383 -1.878541,-0.80581 -3.042708,-1.0389 -1.164167,-0.23309 -2.325026,-0.48503 -2.579688,-0.55987 -0.558315,-0.16407 -0.62183,-0.89416 -0.07779,-0.89416 0.438266,0 2.918965,-1.40357 3.71581,-2.1024 0.291042,-0.25524 1.299483,-0.92841 2.240981,-1.49594 1.961501,-1.18238 4.753522,-3.71728 6.316101,-5.73445 0.58916,-0.76056 1.802817,-2.15674 2.697017,-3.10263 0.8942,-0.94588 2.113021,-2.43416 2.70849,-3.30729 1.67946,-2.46256 2.827121,-3.89937 5.487051,-6.86951 1.291753,-1.44241 2.350537,-2.80921 3.540606,-4.57063 0.86665,-1.28272 1.802852,-1.65293 4.185897,-1.65526 0.838665,-8.2e-4 2.07539,-0.2203 2.778125,-0.49304 0.786167,-0.30513 2.331452,-0.5542 4.074128,-0.6567 1.54416,-0.0908 3.806347,-0.40793 5.027083,-0.7047 2.710317,-0.65889 6.487582,-0.92522 19.066112,-1.34432 11.29648,-0.37639 13.26415,-0.28935 17.549244,0.77634 1.74625,0.43428 4.54422,1.09728 6.21771,1.47332 1.67349,0.37605 3.63802,0.81732 4.36562,0.98061 1.96083,0.44005 4.68968,1.33547 5.2844,1.73397 0.28704,0.19234 0.78392,0.34971 1.10418,0.34971 0.32025,0 0.91884,0.27997 1.33019,0.62215 1.74254,1.44955 2.80204,1.43803 3.17102,-0.0345 0.0992,-0.39598 0.57693,-1.28436 1.06156,-1.97417 0.48463,-0.68982 1.10732,-1.82091 1.38374,-2.51355 0.27642,-0.69263 0.87886,-2.20827 1.33875,-3.36809 0.45989,-1.15982 0.92322,-2.23138 1.02962,-2.38125 0.52584,-0.74064 1.05869,-3.11663 1.63354,-7.283953 0.13047,-0.94589 0.37096,-2.67229 0.53442,-3.83646 0.40142,-2.85911 0.12811,-6.19589 -0.83436,-10.18645 -1.20642,-5.00202 -3.55128,-10.47562 -5.44061,-12.7 -2.02632,-2.385677 -6.07596,-6.122321 -7.4954,-6.916093 -4.15952,-2.326058 -6.32136,-3.375266 -7.27605,-3.531279 -0.58208,-0.09512 -1.7727,-0.332929 -2.64583,-0.528456 -1.12749,-0.252488 -3.19754,-0.332635 -7.143754,-0.276584 -5.40442,0.07676 -6.69932,0.230854 -11.50937,1.369604 -0.36381,0.08613 -1.61396,0.648352 -2.77813,1.249387 -2.03886,1.052621 -2.11973,1.130007 -2.19999,2.105204 -0.049,0.595132 0.0839,1.267606 0.32236,1.631564 0.77707,1.185962 7.81776,4.089189 9.9643,4.108781 0.88679,0.0081 1.91371,0.846312 1.79459,1.464822 -0.0593,0.30797 -0.53597,0.66272 -1.23978,0.92271 -1.35077,0.49897 -1.62054,0.85319 -1.62597,2.13497 -0.008,1.98134 -1.6569,3.14453 -4.45652,3.14453 -2.92929,0 -3.36822,-0.30006 -7.2766,-4.97452 -1.35148,-1.61638 -3.10699,-5.025183 -3.77419,-7.328603 -0.3443,-1.188665 -0.45554,-2.518117 -0.44278,-5.291667 0.0146,-3.178818 0.0999,-3.910554 0.60103,-5.159375 0.32119,-0.800364 0.72508,-1.812396 0.89752,-2.248958 0.39455,-0.998882 1.31117,-2.633998 2.15065,-3.836458 1.77439,-2.541603 4.41681,-4.200176 8.46038,-5.310342 1.93265,-0.53061 2.50771,-0.56721 6.61458,-0.420994 5.3491,0.190442 9.132214,0.829377 11.524224,1.946339 0.95405,0.445499 2.14467,0.897079 2.64583,1.003511 0.50116,0.106432 1.50652,0.643164 2.23412,1.192738 0.72761,0.549574 1.8587,1.267147 2.51354,1.594607 1.29359,0.646869 2.19822,1.318442 4.31399,3.202593 0.75601,0.673243 2.05916,1.659168 2.89591,2.190943 0.83674,0.531776 1.52135,1.088863 1.52135,1.237971 0,0.149108 0.68513,0.949121 1.52252,1.777807 0.83738,0.828686 1.74295,1.849167 2.01238,2.267735 0.26942,0.418568 1.24802,1.630354 2.17466,2.692857 2.21515,2.539922 5.25784,6.906686 6.51397,9.348616 1.37165,2.6665 6.22954,13.05476 7.62319,16.30166 0.62461,1.45521 1.72798,3.89599 2.45192,5.42396 1.98384,4.1871 3.09566,6.852513 3.52894,8.459993 0.21474,0.79669 0.97041,2.64216 1.67928,4.10104 0.70887,1.45888 1.55336,3.54548 1.87665,4.63688 0.32328,1.09141 0.69134,2.11685 0.81792,2.27876 0.12657,0.16192 1.30068,2.41268 2.60914,5.00171 2.18602,4.32544 2.37902,4.83256 2.37902,6.25121 0,1.84102 -0.58247,3.46871 -2.04586,5.71706 -1.31406,2.01892 -1.78516,3.80818 -1.53771,5.84028 0.33797,2.77549 0.31071,3.61827 -0.11703,3.61827 -0.21633,0 -0.55956,-0.35718 -0.76274,-0.79375 -0.53328,-1.1458 -1.09333,-1.71286 -2.11204,-2.13851 -1.79885,-0.7516 -3.10857,-0.31274 -4.63843,1.55426 -2.0179,2.46257 -3.05851,5.97883 -4.24459,14.34259 -0.37146,2.61937 -0.7518,5.20898 -0.8452,5.75468 -0.24897,1.45473 0.4676,1.31278 2.12251,-0.42045 2.96335,-3.10361 4.38865,-5.89954 4.3938,-8.61908 0.003,-1.83764 0.30766,-3.99119 0.56372,-3.99119 0.12526,0 0.22773,0.3378 0.22773,0.75068 0,1.33249 1.31574,7.91978 1.81608,9.0923 0.26691,0.62547 0.56755,1.5803 0.66809,2.12183 0.10054,0.54153 0.60966,2.08934 1.13137,3.43958 0.52171,1.35024 1.2171,3.22889 1.5453,4.17477 0.3282,0.94589 0.85867,2.25558 1.17881,2.91042 0.6438,1.31686 0.68485,1.39523 2.05218,3.91846 1.79846,3.31883 4.57198,8.91305 4.57237,9.22251 2.1e-4,0.16978 0.10406,0.34837 0.23076,0.39688 0.23419,0.0897 2.15088,2.98567 2.15088,3.24985 0,0.0794 0.57734,1.18645 1.28298,2.46011 0.70564,1.27365 1.4245,2.74782 1.59746,3.27592 0.50041,1.5279 1.05456,1.84864 3.6551,2.11553 5.46474,0.56083 9.81306,1.78026 14.2058,3.98382 3.70164,1.85688 5.23407,2.95266 7.57171,5.41422 2.38974,2.51643 2.9668,3.37048 3.81766,5.6502 1.78141,4.77295 1.44008,4.26815 3.60543,5.3322 1.08184,0.53161 2.39773,1.03652 2.92419,1.12201 0.52647,0.0855 1.77663,0.52392 2.77813,0.97428 1.0015,0.45036 2.77341,1.23758 3.93758,1.74938 1.16416,0.5118 3.48588,1.61486 5.15937,2.45124 1.67349,0.83638 3.45943,1.68385 3.96875,1.88327 0.50933,0.19941 2.47386,1.18636 4.36563,2.19322 1.89177,1.00686 4.03489,2.12742 4.7625,2.49013 0.7276,0.36272 2.39448,1.39703 3.70416,2.29847 1.30969,0.90145 3.08833,2.03843 3.95254,2.52663 0.86421,0.4882 2.23343,1.55331 3.04271,2.36689 0.80928,0.81359 2.66642,2.6077 4.12698,3.98691 3.2282,3.04842 4.02542,4.05203 4.8978,6.16577 0.37081,0.89846 1.22684,2.71823 1.9023,4.04395 1.40008,2.74791 2.16614,6.0027 3.10685,13.20002 0.61366,4.69508 1.11277,7.34566 1.86833,9.92188 0.27741,0.94588 0.69968,2.55323 0.93838,3.57187 0.23869,1.01865 0.67208,2.2453 0.96309,2.7259 0.291,0.4806 0.46351,0.93939 0.38336,1.01955 -0.19717,0.19717 -69.09902,0.26563 -96.1317,0.0955 z m -54.85359,-19.85168 c 0.27544,-0.14741 0.95222,-0.69232 1.50396,-1.21091 0.55174,-0.51859 1.44965,-1.23292 1.99535,-1.58739 0.5457,-0.35447 0.99219,-0.68896 0.99219,-0.74331 0,-0.43933 -2.47333,-1.10086 -5.15938,-1.37997 -3.96852,-0.41237 -5.320524,-0.70622 -7.080734,-1.53893 -0.76662,-0.36267 -1.92447,-0.84661 -2.57299,-1.07542 -1.34214,-0.47354 -2.38482,-1.34208 -2.38482,-1.98653 0,-0.66172 2.04101,-1.4715 6.35,-2.51941 6.476974,-1.57514 7.819294,-1.71398 15.345834,-1.58727 3.71078,0.0625 7.61989,0.23928 8.68691,0.39292 1.06702,0.15364 2.05413,0.20883 2.19358,0.12265 0.49704,-0.30719 -0.81913,-3.47632 -2.71996,-6.54927 -0.70475,-1.13931 -1.28136,-2.16265 -1.28136,-2.27409 0,-0.11144 -0.22163,-0.4032 -0.49252,-0.64835 -0.27089,-0.24515 -0.70797,-0.9235 -0.97129,-1.50745 -0.41762,-0.92611 -0.44234,-1.29716 -0.19351,-2.90475 0.25962,-1.67725 0.40647,-1.97562 1.63276,-3.31737 0.74111,-0.8109 1.34748,-1.58974 1.34748,-1.73076 0,-0.59613 -0.81441,-1.76131 -1.32427,-1.89464 -1.16229,-0.30395 -3.94035,0.32086 -5.3384,1.20065 -2.33837,1.47152 -4.95037,4.43135 -6.94709,7.8722 -1.05292,1.81444 -2.26049,3.03268 -3.26734,3.29622 -0.94847,0.24826 -2.61729,-0.32746 -3.24587,-1.11979 -0.50555,-0.63724 -0.55303,-0.93096 -0.4078,-2.5224 0.17367,-1.90305 0.74312,-3.27253 2.35583,-5.66564 0.51201,-0.75977 1.07339,-1.81308 1.24752,-2.34068 0.17412,-0.52761 0.47279,-1.26036 0.6637,-1.62835 0.38979,-0.75131 0.18084,-1.61643 -0.49309,-2.04153 -0.31239,-0.19705 -0.93422,-0.13666 -2.22333,0.21593 -1.25874,0.34428 -3.04551,0.52516 -6.022994,0.60971 -4.42187,0.12556 -6.287,-0.0952 -9.92187,-1.1746 -2.26931,-0.67385 -8.63755,-3.79093 -10.24055,-5.01245 -0.69786,-0.53179 -1.9832,-1.51717 -2.85633,-2.18975 -0.87312,-0.67259 -2.3097,-1.65871 -3.19238,-2.1914 -1.05475,-0.63651 -2.447646,-1.91063 -4.063385,-3.71688 -1.35217,-1.5116 -2.773095,-2.93455 -3.157611,-3.16211 -0.384516,-0.22756 -1.234902,-0.9383 -1.889745,-1.57942 -1.387383,-1.3583 -1.962093,-1.6282 -2.665437,-1.25179 -0.909205,0.4866 -1.321519,1.99657 -2.345166,8.58847 -0.158185,1.01865 -0.458302,2.79496 -0.666928,3.94736 -0.208626,1.1524 -0.45562,4.36708 -0.548876,7.14375 -0.161612,4.81195 -0.138818,5.16691 0.48653,7.57647 0.805096,3.10214 2.995668,7.55672 4.650988,9.45788 4.742862,5.44726 6.255005,6.65022 9.82014,7.81224 3.89592,1.26983 12.40309,2.281 16.09552,1.91312 l 1.67574,-0.16696 -0.18227,1.70201 c -0.25325,2.36484 0.0266,3.65136 1.09996,5.05713 1.87089,2.45023 5.29529,3.5296 11.292504,3.5594 2.18195,0.0108 4.14205,-0.0994 4.4208,-0.24854 z m -76.88952,-3.86133 c 0.269349,-0.10336 0.418515,-0.48486 0.418515,-1.07036 0,-1.26447 -0.886744,-2.08314 -2.521984,-2.32836 -0.713926,-0.10706 -1.837525,-0.46844 -2.496886,-0.80307 -1.367418,-0.69398 -6.124006,-5.26835 -7.38692,-7.10393 -0.965178,-1.40284 -1.510032,-1.76285 -2.667936,-1.76285 -0.627666,0 -1.099082,0.28611 -2.00177,1.21491 -1.201893,1.23665 -1.434089,2.00333 -0.841611,2.77886 0.177273,0.23205 1.86205,1.41115 3.743948,2.62023 1.881898,1.20908 4.01842,2.65002 4.747825,3.20209 3.061713,2.31732 7.380048,3.87673 9.006819,3.25248 z m 62.992466,-43.20208 c 1.01865,-0.29851 2.13031,-0.54622 2.47037,-0.55045 1.46837,-0.0183 10.004844,-3.58158 11.025524,-4.60226 0.23267,-0.23266 1.10127,-0.86931 1.93024,-1.41477 1.91755,-1.26174 3.7558,-3.0931 5.75191,-5.73033 1.8816,-2.48594 2.57266,-3.65752 3.60975,-6.11972 1.07565,-2.55372 1.12585,-2.7173 2.06493,-6.72837 0.45756,-1.95435 0.99623,-3.87109 1.19704,-4.25943 0.33573,-0.64922 0.70853,-3.37475 1.10277,-8.0622 0.0857,-1.01865 0.24473,-1.97115 0.35346,-2.11667 0.36324,-0.48614 1.05333,-4.05591 1.05863,-5.47619 0.005,-1.429 0.54167,-6.37668 1.02735,-9.47731 0.14777,-0.94339 0.45208,-3.22251 0.67625,-5.06472 0.22417,-1.84221 0.64423,-4.1044 0.93346,-5.02709 0.58542,-1.86756 0.67312,-3.3289 0.25487,-4.24685 -0.1528,-0.33537 -0.96496,-1.05468 -1.80479,-1.59846 -2.56504,-1.66083 -7.33251,-2.41944 -11.24833,-1.78987 -0.88991,0.14308 -2.57051,0.38398 -3.73468,0.53534 -1.16416,0.15135 -3.42635,0.68941 -5.02708,1.19567 -1.60073,0.50627 -3.584704,1.04558 -4.408834,1.19846 -1.45286,0.26952 -2.02431,0.74568 -1.6404,1.36685 0.1137,0.18399 1.71655,0.22159 4.829504,0.11331 2.56262,-0.0891 6.62385,-0.2299 9.02494,-0.31282 l 4.36562,-0.15074 1.31745,0.74117 c 1.68644,0.94876 2.15586,2.00157 1.2276,2.75324 -0.34061,0.27581 -0.8842,0.50147 -1.20798,0.50147 -0.32378,0 -1.88816,0.66142 -3.47642,1.46983 -5.46524,2.78175 -10.51494,3.19298 -15.323154,1.24783 -1.53941,-0.62276 -2.41069,-0.44145 -2.66044,0.55364 -0.23911,0.9527 0.35014,5.29863 0.94974,7.00458 0.28558,0.81255 0.91984,2.07734 1.40946,2.81064 1.22007,1.82729 4.810234,5.41595 7.877704,7.87441 3.53103,2.82999 6.00629,5.62986 6.09116,6.88997 0.0714,1.05996 -0.16942,1.4179 -2.25705,3.35506 -1.23257,1.14372 -3.34077,4.05916 -3.34077,4.61995 0,0.1466 -0.86271,1.99816 -1.91713,4.11458 -1.5699,3.15108 -2.18932,4.11179 -3.41991,5.30417 -2.331784,2.25939 -3.966814,2.96272 -7.477144,3.21638 -1.74007,0.12575 -3.01244,0.11193 -3.15867,-0.0343 -0.15011,-0.1501 0.47538,-1.01611 1.61625,-2.23774 1.02362,-1.09609 1.93437,-2.28468 2.02388,-2.64132 0.24658,-0.98247 -0.23022,-1.90548 -1.43525,-2.7784 -1.12649,-0.81603 -2.24405,-1.11177 -6.07578,-1.60784 -3.54252,-0.45864 -6.89625,-1.34605 -8.26823,-2.18782 -0.69122,-0.4241 -1.25677,-0.87767 -1.25677,-1.00793 0,-0.4585 1.20305,-0.53082 2.31278,-0.13904 2.56792,0.90658 14.93038,0.096 18.27593,-1.19826 0.81999,-0.31723 0.68991,-1.45391 -0.24597,-2.14941 -0.55159,-0.40992 -1.38193,-0.56022 -4.10104,-0.74234 -7.4222,-0.49711 -8.0077,-0.57115 -8.45882,-1.06964 -0.96933,-1.07109 1.20073,-2.6117 4.82184,-3.4232 1.39174,-0.3119 3.54811,-1.35444 4.04845,-1.95732 0.26422,-0.31836 0.30663,-1.07218 0.17605,-3.12949 -0.24345,-3.83579 -0.69226,-8.30263 -0.99006,-9.85386 -0.35293,-1.83842 -1.01559,-12.08991 -1.00905,-15.61041 0.006,-3.18931 0.47833,-5.70938 1.22538,-6.53682 0.54677,-0.60561 1.8801,-1.25049 4.18513,-2.02418 1.40775,-0.47251 2.50124,-0.54855 9.657294,-0.67152 8.90704,-0.15307 9.93553,-0.31048 13.89063,-2.12595 1.88329,-0.86447 4.13811,-2.95764 4.65742,-4.32353 0.39099,-1.02839 0.35125,-4.02913 -0.0588,-4.43771 -0.45646,-0.45486 -4.06969,-1.06213 -8.5674,-1.43993 -2.50383,-0.21031 -4.05142,-0.49556 -5.68854,-1.04851 -1.67113,-0.56443 -2.96276,-0.79802 -5.02709,-0.90915 -3.10181,-0.16698 -9.946874,-0.64758 -11.385744,-0.79941 -0.51409,-0.0542 -6.94346,-0.004 -14.2875,0.11056 l -13.352796,0.20919 -3.157425,0.82774 c -1.736583,0.45527 -3.284396,0.9265 -3.439583,1.04719 -0.155188,0.12069 -0.696021,0.29813 -1.201852,0.39431 -0.505831,0.0962 -1.458331,0.4223 -2.116667,0.72472 -4.682347,2.15091 -5.394518,2.55074 -8.294455,4.65664 -2.576005,1.87067 -2.834123,2.13273 -5.676351,5.76302 -0.619031,0.79067 -1.907661,3.37234 -2.170487,4.3484 -0.551855,2.04944 -0.410624,2.98692 0.78555,5.2144 3.93323,7.32435 3.726167,6.4592 3.885414,16.23408 0.119307,7.32325 0.08111,8.52697 -0.314876,9.92187 -0.247861,0.87313 -0.59878,2.12329 -0.77982,2.77813 -0.181041,0.65484 -0.404239,2.4609 -0.495998,4.01346 l -0.166833,2.82284 1.252941,1.04081 c 0.689118,0.57245 1.68573,1.32623 2.214693,1.67508 4.562262,3.00877 10.293576,8.27519 13.325749,12.24482 0.873125,1.14307 2.013288,2.51066 2.533695,3.03909 0.520408,0.52842 1.434809,1.61581 2.032001,2.41642 2.233464,2.9942 7.17511,7.38003 11.30182,10.03061 0.5862,0.37652 1.44506,0.96916 1.90857,1.31697 0.46352,0.34782 1.47555,0.9074 2.24896,1.24352 1.30505,0.56716 1.69169,0.60409 5.37495,0.51337 2.9991,-0.0739 4.42126,-0.23036 5.82083,-0.6405 z M 70.788446,178.835 c -0.96533,-0.84757 -0.96665,-0.85172 -0.83982,-2.62443 0.0838,-1.17182 0.31601,-2.07516 0.68283,-2.65682 0.30568,-0.48472 0.81162,-1.35755 1.1243,-1.93964 0.31268,-0.58208 0.84691,-1.35607 1.18717,-1.71997 0.34026,-0.3639 1.19941,-1.73312 1.90922,-3.04271 1.44879,-2.67298 1.86075,-2.91512 3.37127,-1.98157 0.68427,0.4229 0.92031,0.75163 0.91599,1.27573 -0.009,1.07176 -0.90749,2.82794 -1.73196,3.38462 -1.25358,0.8464 -3.76389,3.60863 -4.49769,4.94903 -0.61664,1.12638 -0.6877,1.51008 -0.60028,3.24115 0.11487,2.27477 -0.0566,2.40041 -1.52103,1.11461 z m -4.872395,-25.79967 c -0.218281,-0.088 -1.57861,-0.8046 -3.022954,-1.59253 -2.233086,-1.21822 -2.807211,-1.42308 -3.836458,-1.36898 -3.047989,0.1602 -3.115011,-0.26209 -0.426858,-2.68954 1.782969,-1.61005 2.112847,-1.79295 4.409272,-2.44464 3.183913,-0.90355 5.561435,-1.17287 5.961628,-0.67532 0.174682,0.21718 0.330626,2.05796 0.389325,4.59563 l 0.09792,4.23333 -1.5875,0.051 c -0.873125,0.028 -1.766094,-0.021 -1.984375,-0.10894 z m -8.072298,-11.23807 c -0.991812,-1.1787 -1.281393,-2.03036 -0.863077,-2.53829 0.185029,-0.22467 0.97188,-0.81581 1.748558,-1.31363 1.344891,-0.86203 1.552794,-0.91105 4.365625,-1.02932 1.624416,-0.0683 6.505234,-0.0282 10.846257,0.089 7.4514,0.2013 7.9149,0.24281 8.28838,0.74239 0.54311,0.72647 0.29459,2.39139 -0.4829,3.2351 -1.37068,1.48742 -4.37938,1.86396 -6.74663,0.84435 -3.71774,-1.6013 -5.739089,-2.09508 -8.576453,-2.09508 -2.041427,0 -2.572064,0.0983 -3.757403,0.6964 -0.759147,0.38302 -1.771363,1.03787 -2.249369,1.45521 -1.118375,0.97645 -1.695107,0.95713 -2.572988,-0.0862 z m 74.197767,43.99777 c 1.09446,-1.38187 2.22631,-3.87628 3.07307,-6.77258 0.57116,-1.95359 0.6733,-2.74373 0.56876,-4.39952 -0.13087,-2.07284 -0.44688,-2.8514 -1.72892,-4.25947 -0.70198,-0.77099 -2.23053,-1.41228 -2.68975,-1.12846 -0.17926,0.11079 -0.0737,0.5033 0.29651,1.10227 0.97848,1.5832 0.6419,5.35026 -0.72112,8.07114 -0.34111,0.68093 -0.75317,1.32023 -0.91569,1.42067 -0.7036,0.43484 -1.83124,2.64363 -1.83124,3.58697 0,0.85571 0.17952,1.13883 1.38906,2.19071 0.76398,0.66439 1.46835,1.21089 1.56527,1.21444 0.0969,0.004 0.54423,-0.45822 0.99405,-1.02617 z m -83.389531,0.34775 c 0.694493,-0.1073 0.859896,-0.25505 0.859896,-0.76812 0,-0.49157 -0.454223,-0.9527 -2.008007,-2.03854 -1.104403,-0.77179 -2.37369,-1.79021 -2.820637,-2.26315 -0.815017,-0.86242 -1.782154,-1.14829 -1.790281,-0.52917 -0.0024,0.1819 -0.04273,1.34276 -0.08965,2.57969 -0.09928,2.61722 -0.0099,3.11276 0.584169,3.24002 0.526631,0.1128 4.066314,-0.0356 5.264514,-0.22073 z m 97.049581,-66.14663 c 0.48806,-0.23159 1.21301,-0.72287 1.611,-1.09171 0.69504,-0.64414 0.70399,-0.685 0.22653,-1.03413 -0.27341,-0.19992 -1.01395,-0.36349 -1.64566,-0.36349 -1.75102,0 -2.81252,-0.58583 -4.15413,-2.29261 -1.21747,-1.54886 -2.53043,-4.86982 -2.53626,-6.41516 -10e-4,-0.37672 -0.29319,-1.30913 -0.64838,-2.07204 -1.09026,-2.34178 -3.1573,-2.81287 -4.49231,-1.02382 -0.80322,1.0764 -0.73082,4.16056 0.15623,6.65548 0.68947,1.93921 2.68959,5.12188 3.72628,5.92941 2.48374,1.93472 5.75914,2.65598 7.7567,1.70807 z m -26.15589,-7.87181 c -1.04885,-1.60075 -1.34367,-7.37524 -0.45128,-8.83887 0.90276,-1.48062 1.52838,-1.11496 2.21992,1.29749 0.50306,1.75493 0.58218,6.31729 0.12462,7.18657 -0.59717,1.13453 -1.29649,1.26559 -1.89326,0.35481 z m -12.98419,-2.37475 c -0.58943,-0.44243 -0.97622,-4.31095 -1.01004,-10.102143 -0.023,-3.94318 0.0556,-5.02423 0.45734,-6.28385 0.39637,-1.24296 0.59148,-1.52136 1.06619,-1.52136 0.75086,0 1.07204,0.81975 1.4513,3.70417 0.48595,3.6958 0.50696,5.233343 0.12283,8.989703 -0.49462,4.83685 -0.97872,6.04581 -2.08762,5.21348 z M 73.027026,55.934847 c -0.51251,-0.610222 -1.15728,-2.179607 -1.7161,-4.176983 -0.36303,-1.297594 -0.41425,-2.263947 -0.28049,-5.291667 0.0905,-2.048872 0.35548,-4.413578 0.59294,-5.291666 0.23611,-0.873125 0.58597,-2.301875 0.77746,-3.175 0.1915,-0.873125 0.71998,-2.837657 1.17442,-4.365625 0.84903,-2.854766 1.49438,-5.229062 2.89651,-10.65659 0.8006,-3.099017 0.83326,-4.310305 0.16299,-6.044191 -0.31183,-0.806659 0.61757,-1.362133 2.04896,-1.224595 1.57023,0.15088 2.4961,0.792966 3.37192,2.338397 0.65072,1.148237 0.66019,1.249187 0.58344,6.217924 -0.13053,8.45113 0.71268,11.221138 3.41579,11.221138 0.98978,0 1.23332,-0.150419 2.67742,-1.653646 1.00015,-1.041096 1.93298,-2.368773 2.51829,-3.584212 0.8384,-1.740987 0.91651,-2.09174 0.79542,-3.571875 -0.20453,-2.499991 -1.49162,-5.262126 -3.41554,-7.32985 -0.88011,-0.945886 -1.73722,-1.902995 -1.9047,-2.126909 -0.16747,-0.223915 -1.48958,-1.228883 -2.938,-2.233264 -3.58135,-2.483413 -7.24301,-3.554058 -12.18316,-3.562283 -4.168736,-0.0069 -5.685699,0.311645 -8.703786,1.827924 -3.655247,1.836387 -5.550124,3.614925 -7.338865,6.888282 -2.666242,4.879165 -3.66881,6.94571 -3.66881,7.562341 0,0.342866 -0.305272,1.549805 -0.678381,2.682088 -1.210304,3.672933 -2.372122,9.305648 -3.016879,14.626404 -0.370194,3.054969 -0.834744,5.640268 -1.105368,6.151562 -0.357998,0.67637 -0.887108,0.566481 -1.273955,-0.264583 -0.907034,-1.94858 -2.336312,-6.871309 -2.3238,-8.003646 0.0024,-0.218281 -0.133135,-0.893674 -0.301216,-1.500872 -0.673763,-2.434001 -1.169693,-7.086808 -1.616703,-15.167878 -0.322725,-5.834245 -0.186697,-9.986383 0.414436,-12.650272 0.207276,-0.918535 0.376866,-2.4737 0.376866,-3.455922 0,-1.364543 0.271095,-2.655879 1.149113,-5.473685 0.632012,-2.028306 1.292115,-4.28314104 1.466896,-5.01074504 0.174781,-0.72760496 0.657417,-2.05415196 1.072524,-2.94788396 0.415107,-0.893732 0.839808,-2.012279 0.94378,-2.485661 0.455636,-2.074496 3.255058,-5.895992 6.582841,-8.986247 1.332002,-1.236928 2.754393,-2.665678 3.160869,-3.175 1.024381,-1.28357 4.225171,-3.785289 6.129185,-4.790534 0.873125,-0.460976 2.256448,-1.291894 3.07405,-1.846485 0.817603,-0.55459 1.829635,-1.08311 2.248959,-1.174488 0.419324,-0.09138 1.536314,-0.509533 2.482204,-0.929232 1.11267,-0.493704 2.90913,-0.953632 5.08885,-1.302842 3.76552,-0.60327 5.41685,-0.660849 7.74343,-0.270001 0.87313,0.146678 2.38621,0.38298 3.36241,0.525115 2.282,0.33226 6.80089,1.766795 7.48551,2.376298 0.29104,0.259107 0.94589,0.6813 1.45521,0.938206 2.12613,1.072436 4.556384,2.990867 7.635494,6.027417 3.25419,3.209211 3.27915,3.243226 5.20472,7.095039 3.35535,6.711854 3.82854,9.06602 3.82854,19.047192 0,6.682632 -0.0551,7.614683 -0.58077,9.827428 -0.52008,2.189177 -0.57615,3.086601 -0.53657,8.589212 0.0475,6.606102 0.34873,8.638788 1.74952,11.806232 0.33806,0.7644 0.75982,1.860199 0.93725,2.435109 0.59063,1.913688 1.77005,4.409942 2.40626,5.092827 0.25628,0.275089 0.64591,0.846149 0.86583,1.269022 0.21993,0.422873 0.70884,1.057504 1.08647,1.410293 0.88684,0.82851 0.91124,1.607525 0.0503,1.607525 -0.42251,0 -1.46692,-0.738515 -3.10885,-2.198304 -2.65657,-2.361866 -6.06983,-4.453595 -8.25915,-5.061392 -2.18306,-0.606061 -4.7524,-0.901639 -9.691574,-1.11492 -8.32429,-0.359456 -9.58004,-0.172938 -14.35773,2.132564 -2.35603,1.136913 -3.2851,1.751391 -4.34915,2.876465 -1.67587,1.771982 -3.03966,4.432929 -3.84387,7.499938 -0.64279,2.451425 -1.06919,2.92536 -1.82369,2.027007 z"
       id="path6"
       sodipodi:nodetypes="ccsssssssssscsssssssssssssssssssssssssssssssssssssssssssssssssssssssssssssssssssssssssssssssssssssssscssscssssssssssssssssssssssssssssssssssssscssssssssssssssssssssssssssssssssssssscsssssssssssssssssssssssssssssssssssssssssssssscssssssssssssssssssssssssscsssssssssssscssssssssssssssssssssssssssssssscssssssssscccsssssssssssscsssssssssssssssssscsssssssssssccsscssscssssssccssssscsssscssssssssssssssscsssssssssssscsssscssssssssssssssssscsssssssssssssssssssssssssssssssssssssssssssscc" /></g></svg>
