<?xml version="1.0" encoding="UTF-8" standalone="no"?>
<!-- Created with Inkscape (http://www.inkscape.org/) -->

<svg
   width="108.17351mm"
   height="108.06838mm"
   viewBox="0 0 108.17351 108.06838"
   version="1.1"
   id="svg1"
   xml:space="preserve"
   inkscape:export-filename="cobm_logo.svg"
   inkscape:export-xdpi="96"
   inkscape:export-ydpi="96"
   xmlns:inkscape="http://www.inkscape.org/namespaces/inkscape"
   xmlns:sodipodi="http://sodipodi.sourceforge.net/DTD/sodipodi-0.dtd"
   xmlns="http://www.w3.org/2000/svg"
   xmlns:svg="http://www.w3.org/2000/svg"><sodipodi:namedview
     id="namedview1"
     pagecolor="#ffffff"
     bordercolor="#000000"
     borderopacity="0.25"
     inkscape:showpageshadow="2"
     inkscape:pageopacity="0.0"
     inkscape:pagecheckerboard="0"
     inkscape:deskcolor="#d1d1d1"
     inkscape:document-units="mm"><inkscape:page
       x="0"
       y="0"
       width="108.17351"
       height="108.06838"
       id="page2"
       margin="0"
       bleed="0" /></sodipodi:namedview><defs
     id="defs1" /><g
     inkscape:label="Camada 1"
     inkscape:groupmode="layer"
     id="layer1"
     transform="translate(-258.18252,27.902691)"><path
       d="m 305.11463,79.868114 c -8.96213,-1.270812 -17.07239,-4.52672 -24.73854,-9.93143 -3.26265,-2.300199 -8.03338,-6.942697 -10.86684,-10.574743 -6.08138,-7.795383 -10.03188,-17.572371 -11.12218,-27.526 -0.42469,-3.877155 -0.15819,-11.537933 0.52432,-15.071916 2.42125,-12.5370985 8.26233,-22.9443105 17.4614,-31.111509 6.07101,-5.390015 14.05813,-9.733443 21.59809,-11.745127 4.59774,-1.22669 7.3424,-1.622844 12.30313,-1.775788 9.67039,-0.298146 17.3695,1.333272 25.79687,5.466284 14.39744,7.060893 24.70814,19.7562975 28.69753,35.33482 2.74488,10.718741 1.8907,23.373665 -2.2534,33.384763 -5.85346,14.140459 -16.53904,24.694794 -30.7207,30.343389 -2.61208,1.040402 -7.23762,2.322936 -10.74177,2.978395 -3.1058,0.580948 -12.50324,0.715891 -15.93791,0.228862 z m 15.15341,-1.03815 c 11.11903,-1.725607 21.00596,-6.64399 28.98693,-14.419933 3.34681,-3.260831 5.03481,-5.270751 7.39755,-8.808328 10.52469,-15.757983 11.76081,-36.203452 3.22235,-53.2977535 -5.26726,-10.545252 -14.16741,-19.2726715 -24.73003,-24.2500835 -17.99486,-8.479695 -38.90186,-6.36726 -54.98824,5.555989 -2.61596,1.938951 -8.50927,7.8333955 -10.45118,10.4531815 -4.74041,6.39518397 -7.94419,13.464035 -9.55066,21.0726985 -3.14209,14.88171 0.30116,30.646115 9.36322,42.868109 1.94847,2.627902 6.6363,7.522571 9.12813,9.530891 7.90091,6.367821 17.85609,10.480712 28.20171,11.651283 2.89185,0.327202 10.2808,0.131165 13.42022,-0.356054 z m -28.36097,-14.935876 -0.6897,-1.092564 h -1.84877 c -1.01682,0 -1.84876,-0.05722 -1.84876,-0.127154 0,-0.06994 0.41945,-0.782868 0.93212,-1.584296 l 0.93212,-1.457142 -0.6625,-1.307396 c -0.36438,-0.719068 -0.78384,-1.38238 -0.93213,-1.474027 -0.68644,-0.424249 -0.1154,-0.664568 1.57915,-0.664568 h 1.84877 l 0.6897,-1.092564 0.68971,-1.092565 0.65153,1.092565 0.65152,1.092564 h 1.83709 c 1.0104,0 1.83709,0.06796 1.83709,0.151015 0,0.08306 -0.37992,0.836832 -0.84426,1.675052 l -0.84426,1.524035 0.84426,1.495941 c 0.46434,0.822767 0.84426,1.557276 0.84426,1.63224 0,0.07496 -0.82669,0.1363 -1.83709,0.1363 h -1.83709 l -0.65152,1.092564 -0.65153,1.092565 z m 0.79971,-1.020906 c -0.26896,-0.268953 -0.49087,0.135967 -0.2702,0.49302 0.1667,0.269721 0.22902,0.269929 0.31864,0.0011 0.0613,-0.183828 0.0395,-0.406167 -0.0484,-0.494086 z m -2.01368,-0.931554 c -9.6e-4,-0.181901 -0.22793,-0.673814 -0.50438,-1.093141 l -0.50262,-0.762412 -0.42167,0.815419 c -0.60658,1.172987 -0.53378,1.370864 0.50437,1.370864 0.56537,0 0.92536,-0.12881 0.9243,-0.33073 z m 3.63256,-1.054028 0.68676,-1.252466 -0.49666,-1.101404 c -0.65137,-1.44447 -1.05478,-1.817622 -1.96504,-1.817622 -0.62086,0 -0.89892,0.238522 -1.5929,1.366376 l -0.84074,1.366376 0.59373,1.081019 c 0.90844,1.654044 1.05468,1.775839 2.02873,1.689711 0.76724,-0.06784 1.00025,-0.263516 1.58612,-1.33199 z m 2.19001,1.227143 c 0,-0.259938 -0.89598,-1.694469 -1.05833,-1.694469 -0.26653,0 -1.05032,1.507316 -0.87497,1.682667 0.21378,0.213781 1.9333,0.224278 1.9333,0.0118 z m -6.23271,-4.13459 c 0.65038,-0.928549 0.51392,-1.264045 -0.51416,-1.264045 -1.00494,0 -1.08573,0.153787 -0.61899,1.178175 0.37682,0.827029 0.60207,0.844098 1.13315,0.08587 z M 296.112,57.78758 c 0.54995,-1.063476 0.54506,-1.071472 -0.65466,-1.071472 -1.20443,0 -1.22391,0.03493 -0.60441,1.083656 0.56935,0.96383 0.75529,0.962031 1.25907,-0.01218 z m -3.28065,-1.937983 c -0.0327,-0.316363 -0.39563,-0.255094 -0.50932,0.08599 -0.0582,0.174625 0.037,0.269875 0.21166,0.211666 0.17463,-0.05821 0.30857,-0.192153 0.29766,-0.297656 z m 18.1504,8.032741 -0.71525,-1.080814 h -1.84833 c -1.01658,0 -1.84833,-0.05722 -1.84833,-0.127154 0,-0.06994 0.4301,-0.799509 0.95578,-1.621277 l 0.95578,-1.494122 -0.59821,-1.090703 c -0.32902,-0.599886 -0.75912,-1.278671 -0.95578,-1.508411 -0.59212,-0.691712 -0.43545,-0.772916 1.49119,-0.772916 h 1.84877 l 0.6897,-1.092564 0.68971,-1.092565 0.65153,1.092565 0.65152,1.092564 h 1.83709 c 1.0104,0 1.83709,0.0748 1.83709,0.166231 0,0.09143 -0.3787,0.828129 -0.84156,1.637116 l -0.84155,1.470886 0.84155,1.519159 c 0.46286,0.835538 0.84156,1.587117 0.84156,1.670176 0,0.08306 -0.82135,0.151015 -1.82522,0.151015 h -1.82522 l -0.63829,1.080814 -0.63828,1.080815 z m 1.14434,-0.831845 c 0,-0.136933 -0.17859,-0.248969 -0.39688,-0.248969 -0.40915,0 -0.52564,0.312199 -0.22767,0.610168 0.21138,0.211384 0.62455,-0.02757 0.62455,-0.361199 z m -2.38299,-1.108865 c -9.6e-4,-0.181901 -0.22275,-0.665913 -0.49286,-1.075583 l -0.49111,-0.744854 -0.5435,0.92117 c -0.29893,0.506643 -0.47402,0.990656 -0.38909,1.075583 0.30468,0.304684 1.91831,0.156236 1.91656,-0.176316 z m 3.63533,-1.059055 0.68952,-1.257493 -0.62263,-1.329345 c -0.6196,-1.322877 -1.23202,-1.737132 -2.27201,-1.536849 -0.256,0.0493 -0.8107,0.677256 -1.23267,1.395453 l -0.76721,1.305814 0.59055,1.075373 c 0.90489,1.647762 1.05208,1.770141 2.02556,1.684064 0.76782,-0.06789 1.00021,-0.263447 1.58889,-1.337017 z m 2.18724,1.23217 c 0,-0.259938 -0.89598,-1.694469 -1.05833,-1.694469 -0.26653,0 -1.05032,1.507316 -0.87497,1.682667 0.21378,0.213781 1.9333,0.224278 1.9333,0.0118 z m -6.23271,-4.13459 c 0.64193,-0.916483 0.51268,-1.264045 -0.47006,-1.264045 -1.16289,0 -1.27147,0.15637 -0.74781,1.076859 0.528,0.928096 0.68231,0.951813 1.21787,0.187186 z M 315.162,57.78758 c 0.54995,-1.063476 0.54506,-1.071472 -0.65466,-1.071472 -1.20443,0 -1.22391,0.03493 -0.60441,1.083656 0.56935,0.96383 0.75529,0.962031 1.25907,-0.01218 z m -3.28065,-1.937983 c -0.0327,-0.316363 -0.39563,-0.255094 -0.50932,0.08599 -0.0582,0.174625 0.037,0.269875 0.21166,0.211666 0.17463,-0.05821 0.30857,-0.192153 0.29766,-0.297656 z m 18.1504,8.032741 -0.71525,-1.080814 h -1.84833 c -1.01658,0 -1.84833,-0.05722 -1.84833,-0.127154 0,-0.06994 0.4301,-0.799509 0.95578,-1.621277 l 0.95578,-1.494122 -0.59821,-1.090703 c -0.32902,-0.599886 -0.75912,-1.278671 -0.95578,-1.508411 -0.19667,-0.229739 -0.35757,-0.49763 -0.35757,-0.595312 0,-0.09768 0.89297,-0.177604 1.98437,-0.177604 1.09141,0 1.98482,-0.0893 1.98537,-0.198438 5.4e-4,-0.10914 0.2481,-0.603783 0.55013,-1.099206 l 0.54915,-0.900768 0.65549,1.099206 0.65548,1.099206 h 1.83709 c 1.0104,0 1.83709,0.06796 1.83709,0.151015 0,0.08306 -0.37992,0.836832 -0.84426,1.675052 l -0.84426,1.524035 0.84426,1.495941 c 0.46434,0.822767 0.84426,1.557276 0.84426,1.63224 0,0.07496 -0.82135,0.1363 -1.82522,0.1363 h -1.82522 l -0.63829,1.080814 -0.63828,1.080815 z m 0.85474,-1.042229 c -0.39103,-0.134396 -0.58966,0.138165 -0.36528,0.501226 0.14225,0.230172 0.24952,0.217622 0.41489,-0.04854 0.131,-0.210853 0.11053,-0.397643 -0.0496,-0.452684 z m -2.09339,-0.898481 c -9.6e-4,-0.181901 -0.22275,-0.665913 -0.49286,-1.075583 l -0.49111,-0.744854 -0.5435,0.92117 c -0.29893,0.506643 -0.47402,0.990656 -0.38909,1.075583 0.30468,0.304684 1.91831,0.156236 1.91656,-0.176316 z m 3.24098,-0.396875 c 0.20217,-0.400182 0.53105,-0.985678 0.73086,-1.301101 0.31551,-0.498088 0.29693,-0.720623 -0.14129,-1.692411 -0.6594,-1.46231 -1.06022,-1.835133 -1.97293,-1.835133 -0.62086,0 -0.89892,0.238522 -1.5929,1.366376 l -0.84074,1.366376 0.59373,1.081019 c 0.88775,1.616368 1.03116,1.742479 1.98142,1.742479 0.68825,0 0.95248,-0.154815 1.24185,-0.727605 z m 2.58159,0.56999 c 0,-0.259938 -0.89598,-1.694469 -1.05833,-1.694469 -0.26653,0 -1.05032,1.507316 -0.87497,1.682667 0.21378,0.213781 1.9333,0.224278 1.9333,0.0118 z m -6.23271,-4.13459 c 0.64193,-0.916483 0.51268,-1.264045 -0.47006,-1.264045 -1.16289,0 -1.27147,0.15637 -0.74781,1.076859 0.528,0.928096 0.68231,0.951813 1.21787,0.187186 z M 334.212,57.78758 c 0.54995,-1.063476 0.54506,-1.071472 -0.65466,-1.071472 -1.20443,0 -1.22391,0.03493 -0.60441,1.083656 0.56935,0.96383 0.75529,0.962031 1.25907,-0.01218 z m -3.28065,-1.937983 c -0.0327,-0.316363 -0.39563,-0.255094 -0.50932,0.08599 -0.0582,0.174625 0.037,0.269875 0.21166,0.211666 0.17463,-0.05821 0.30857,-0.192153 0.29766,-0.297656 z M 285.04372,43.118176 c -0.20645,-1.756543 -0.0136,-2.831691 0.80054,-4.46236 0.67881,-1.359665 2.37555,-2.782611 3.61391,-3.030742 0.47835,-0.09585 0.96426,-0.49387 1.34888,-1.104913 1.28214,-2.036932 11.86699,-20.756082 11.97914,-21.184932 0.0807,-0.308627 -0.41632,-0.911053 -1.55459,-1.884231 -0.92027,-0.786806 -1.73275,-1.4908275 -1.80551,-1.5644935 -0.11946,-0.120947 -4.04357,-3.535404 -4.59393,-3.997276 -0.12556,-0.105378 -0.14898,-0.319927 -0.052,-0.476776 0.10414,-0.168504 1.8,1.148117 4.14502,3.218092 2.18282,1.9267995 4.13429,3.5032715 4.33658,3.5032715 0.20264,0 1.92807,-2.7326265 3.84244,-6.0854155 1.91105,-3.34698 3.7735,-6.60036603 4.13878,-7.229747 l 0.66414,-1.144329 1.85427,3.12870397 c 1.01985,1.72078803 2.84804,4.79558003 4.06266,6.83287203 1.21461,2.037291 2.28768,3.9125255 2.38458,4.1671865 0.0969,0.254661 0.26119,0.463021 0.36506,0.463021 0.10388,0 1.99144,-1.603578 4.19458,-3.5635055 2.20315,-1.959929 4.08041,-3.442659 4.1717,-3.294957 0.0913,0.147701 -0.40912,0.769014 -1.11201,1.380693 -0.70289,0.61168 -1.99659,1.766989 -2.87489,2.567353 -0.8783,0.8003645 -2.09961,1.9013825 -2.71401,2.4467065 -0.6144,0.545325 -1.1171,1.109221 -1.1171,1.253103 0,0.143882 0.61585,1.305052 1.36855,2.580376 2.35674,3.993122 5.33222,9.046008 7.75342,13.166689 3.77691,6.42797 3.73147,6.365035 4.83568,6.697778 2.34912,0.707883 4.12062,3.182894 4.07235,5.689593 -0.041,2.129103 -0.14821,2.825958 -0.43521,2.828678 -0.14552,0.0014 -12.07381,2.62e-4 -26.50732,-0.0025 -17.37783,-0.0033 -26.29851,0.08523 -26.40781,0.262076 -0.35585,0.575777 -0.59729,0.206217 -0.75786,-1.160031 z m 51.9532,-0.04701 c 0,-0.209276 -0.33685,-0.513037 -2.91041,-2.624523 -1.23693,-1.014839 -3.26427,-2.799761 -4.5052,-3.966495 -1.24093,-1.166733 -3.01609,-2.776177 -3.94479,-3.576541 -2.80257,-2.41529 -2.68258,-2.309588 -9.88494,-8.707457 -3.20986,-2.851322 -3.70355,-3.200208 -4.08962,-2.890062 -0.462,0.371155 -8.93472,7.880388 -12.75837,11.307536 -1.23326,1.105376 -3.25733,3.02254 -4.49792,4.260365 -1.24059,1.237825 -3.23789,3.073195 -4.43843,4.0786 -1.20055,1.005405 -2.18282,1.927405 -2.18282,2.048888 0,0.121484 11.07282,0.22088 24.60625,0.22088 13.53344,0 24.60625,-0.06804 24.60625,-0.151191 z m -50.33327,-1.10558 c 0.60062,-1.145685 1.42775,-2.624994 2.37369,-4.245285 0.74923,-1.283349 0.69915,-1.502623 -0.25988,-1.137998 -1.62982,0.619654 -3.1097,3.172475 -3.1097,5.364269 0,1.279037 0.332,1.285375 0.99589,0.01901 z m 51.8481,-0.958426 c -0.1921,-1.861299 -1.01507,-3.426753 -2.23849,-4.258088 -0.84582,-0.574755 -1.65759,-0.863489 -1.65759,-0.589584 0,0.04448 0.77391,1.381867 1.71979,2.971961 0.94589,1.590094 1.7198,2.982447 1.7198,3.094119 0,0.111671 0.13572,0.203039 0.3016,0.203039 0.20652,0 0.25535,-0.4481 0.15489,-1.421447 z m -2.04399,0.15033 c 0,-0.117031 -0.33458,-0.742109 -0.74352,-1.389062 -0.40893,-0.646954 -1.08269,-1.801358 -1.49725,-2.565342 -0.72074,-1.328234 -0.80115,-1.388885 -1.83618,-1.385011 -2.00365,0.0075 -2.05759,0.364723 -0.28868,1.911638 0.87313,0.763549 2.12328,1.892276 2.77813,2.508282 1.16925,1.099906 1.5875,1.34216 1.5875,0.919495 z m -45.53475,-2.28698 c 1.32422,-1.156589 2.40766,-2.196118 2.40766,-2.310064 0,-0.113946 -0.28554,-0.278842 -0.63454,-0.366436 -1.39033,-0.348949 -1.75176,-0.07012 -3.21803,2.482532 -0.77896,1.356104 -1.31424,2.427666 -1.18952,2.38125 0.12473,-0.04642 1.31022,-1.030694 2.63443,-2.187282 z m 4.58971,-4.048674 c 0.61889,-0.545703 1.18478,-1.053359 1.25754,-1.128124 0.0728,-0.07476 1.14432,-1.027265 2.38125,-2.116667 1.23692,-1.089401 2.30849,-2.044388 2.38125,-2.122191 0.0728,-0.0778 2.30518,-2.084693 4.96093,-4.459755 2.65576,-2.375061 4.82865,-4.398398 4.82865,-4.496305 0,-0.404089 -7.45754,-6.701812 -7.6766,-6.482717 -0.30112,0.301162 -12.18006,21.080057 -12.09717,21.160637 0.12847,0.124902 1.93237,0.590512 2.37665,0.613447 0.25425,0.01312 0.96862,-0.422622 1.5875,-0.968325 z m 36.77785,0.21005 c 0.25466,-0.0064 0.46302,-0.06477 0.46302,-0.129729 0,-0.140062 -1.29691,-2.400796 -3.57504,-6.231884 -0.9086,-1.527969 -2.41869,-4.087812 -3.35577,-5.688541 -0.93707,-1.600729 -2.57358,-4.375951 -3.63668,-6.16716 l -1.93291,-3.256742 -0.56282,0.513641 c -0.30955,0.282503 -1.99157,1.784558 -3.73782,3.337901 -1.74625,1.553342 -3.21023,2.923203 -3.2533,3.044135 -0.0431,0.120931 1.86194,1.921708 4.23334,4.001727 2.37139,2.080018 4.85271,4.266272 5.51404,4.858341 0.66133,0.592069 1.61383,1.432419 2.11667,1.867443 0.50284,0.435024 1.89071,1.643378 3.08417,2.685232 l 2.16992,1.89428 1.00508,-0.358515 c 0.55279,-0.197183 1.21344,-0.363741 1.4681,-0.370129 z M 315.96255,16.586683 c 2.03729,-1.837089 3.73705,-3.472071 3.77723,-3.633291 0.0402,-0.161221 -0.91703,-1.959392 -2.12715,-3.9959355 -1.21013,-2.036544 -2.95242,-4.982728 -3.87175,-6.547078 -0.91934,-1.56434903 -1.74805,-2.83914003 -1.84159,-2.83287003 -0.24021,0.0161 -7.57841,13.01288053 -7.57841,13.42221753 0,0.37519 7.25527,6.924177 7.67292,6.925978 0.14552,6.28e-4 1.93146,-1.501931 3.96875,-3.339021 z M 334.61567,1.1536085 c 0,-1.23472303 0.11025,-2.11666703 0.26459,-2.11666703 0.15434,0 0.26458,0.881944 0.26458,2.11666703 0,1.234722 -0.11024,2.116666 -0.26458,2.116666 -0.15434,0 -0.26459,-0.881944 -0.26459,-2.116666 z m -45.67897,0.518719 c -2.82942,-0.559989 -5.73841,-3.023355 -6.58687,-5.577827 -0.92225,-2.776639 -0.11957,-5.9386 2.0699,-8.1538195 1.35743,-1.373387 2.48618,-1.97226 4.50112,-2.388105 1.45357,-0.29999 3.62607,-0.170366 3.62607,0.216352 0,0.09857 -0.61494,0.397634 -1.36655,0.66458 -1.55574,0.552551 -3.79953,2.621443 -4.52984,4.1767525 -0.6856,1.46009 -0.60236,3.920124 0.18472,5.458914 0.77275,1.510795 2.48997,3.29313197 4.19032,4.34923297 0.69122,0.429324 1.25677,0.87670103 1.25677,0.99417103 0,0.539307 -1.38847,0.647105 -3.34564,0.259749 z m 2.28683,-0.452574 c -2.6e-4,-0.10914 -0.54779,-0.54422403 -1.21673,-0.96685303 -1.35816,-0.858069 -3.10706,-2.91665597 -3.84277,-4.52325097 -0.63523,-1.387149 -0.62969,-3.649332 0.0124,-5.063332 0.63609,-1.4008045 2.20582,-3.1451425 3.72468,-4.1389815 l 1.19062,-0.779065 -1.37266,0.147636 c -2.92699,0.314808 -5.53352,2.162055 -6.71132,4.7563065 -0.70127,1.544624 -0.68414,4.413656 0.0359,6.003478 0.8121,1.793231 2.88194,3.59834897 4.83649,4.21793097 1.662,0.52684703 3.34431,0.70100803 3.34346,0.34613103 z m 47.93878,-1.49493003 c -1.44567,-1.51473997 -1.58233,-1.74621497 -1.03096,-1.74621497 0.5842,0 2.97768,2.60831197 2.67303,2.91295597 -0.18418,0.18418503 -0.70787,-0.18791 -1.64207,-1.166741 z m -10.89664,0.692142 c 0,-0.114112 0.64062,-0.840135 1.4236,-1.61338597 0.95852,-0.946618 1.48735,-1.302747 1.61876,-1.090123 0.11891,0.192402 -0.30421,0.822788 -1.08292,1.61338597 -1.16438,1.182155 -1.95944,1.624482 -1.95944,1.090123 z m 4.7625,-1.99269297 c -2.17206,-1.025422 -3.01072,-3.632279 -1.83417,-5.701307 0.87404,-1.537052 1.72426,-2.020399 3.55396,-2.020399 1.68169,0 2.44738,0.374652 3.43116,1.678878 0.68724,0.911104 0.83604,2.918099 0.30007,4.047559 -0.88743,1.870134 -3.60727,2.86569197 -5.45102,1.995269 z m 3.70417,-0.946094 c 0.98898,-0.68741 1.67678,-2.247979 1.47197,-3.339746 -0.53471,-2.850257 -4.22684,-3.896535 -6.06045,-1.717415 -2.61781,3.111091 1.25205,7.37622697 4.58848,5.057161 z m -10.84792,-2.939154 c 0,-0.15434 0.88195,-0.264583 2.11667,-0.264583 1.23472,0 2.11667,0.110243 2.11667,0.264583 0,0.15434 -0.88195,0.264584 -2.11667,0.264584 -1.23472,0 -2.11667,-0.110244 -2.11667,-0.264584 z m 13.22917,0 c 0,-0.15434 0.88194,-0.264583 2.11667,-0.264583 1.23472,0 2.11666,0.110243 2.11666,0.264583 0,0.15434 -0.88194,0.264584 -2.11666,0.264584 -1.23473,0 -2.11667,-0.110244 -2.11667,-0.264584 z m -9.50156,-4.6064745 c -1.94119,-1.965602 -1.51508,-2.49915 0.45762,-0.573015 1.01905,0.9950005 1.40763,1.5445465 1.22281,1.7293665 -0.18482,0.184819 -0.71881,-0.182638 -1.68043,-1.1563515 z m 8.33877,1.2119305 c -0.21485,-0.34763 2.65509,-3.0455225 3.00783,-2.8275175 0.20305,0.125494 -0.18499,0.681395 -1.13019,1.619086 -1.48726,1.4754525 -1.64848,1.5792135 -1.87764,1.2084315 z m -3.59971,-3.2200395 c 0,-1.234722 0.11024,-2.116667 0.26458,-2.116667 0.15434,0 0.26459,0.881945 0.26459,2.116667 0,1.234722 -0.11025,2.1166675 -0.26459,2.1166675 -0.15434,0 -0.26458,-0.8819455 -0.26458,-2.1166675 z m -22.75417,0.147906 c 0,-0.646255 -0.10467,-1.239699 -0.23259,-1.318763 -0.12793,-0.07906 -0.74917,0.26502 -1.38052,0.76463 -1.51336,1.197565 -1.75491,0.905144 -0.28657,-0.346931 0.62835,-0.535811 1.05487,-1.061796 0.94781,-1.168855 -0.10706,-0.10706 -0.77715,-0.194654 -1.48909,-0.194654 -0.79558,0 -1.23141,-0.101966 -1.13091,-0.264583 0.0899,-0.145521 0.78157,-0.269054 1.53697,-0.274518 l 1.37344,-0.0099 -1.05213,-0.900257 c -0.57867,-0.495141 -0.98794,-0.964453 -0.90948,-1.042915 0.0785,-0.07846 0.55019,0.197568 1.04829,0.613398 1.19799,1.000125 1.57478,0.809829 1.57478,-0.795332 0,-0.712035 0.11907,-1.294609 0.26459,-1.294609 0.14552,0 0.26458,0.595313 0.26458,1.322917 0,1.570072 0.45912,1.74251 1.63641,0.614601 0.40663,-0.389573 0.80961,-0.638024 0.89552,-0.552112 0.0859,0.08591 -0.2998,0.580026 -0.85713,1.098032 l -1.01334,0.941828 1.24115,0.0072 c 0.68264,0.0039 1.31474,0.126221 1.40468,0.271742 0.10079,0.163071 -0.35003,0.264583 -1.17501,0.264583 -0.73619,0 -1.33853,0.106729 -1.33853,0.237175 0,0.130446 0.42922,0.614036 0.95383,1.074645 0.5246,0.460609 0.88579,0.905507 0.80263,0.988662 -0.0832,0.08315 -0.57605,-0.221842 -1.09532,-0.677771 -0.51928,-0.455928 -1.05906,-0.828961 -1.19951,-0.828961 -0.14046,0 -0.25538,0.595313 -0.25538,1.322917 0,0.727604 -0.11906,1.322917 -0.26458,1.322917 -0.14552,0 -0.26459,-0.528755 -0.26459,-1.175011 z"
       style="fill:#d10101;fill-opacity:1"
       id="path1"
       sodipodi:nodetypes="ssssssssssssssssssssssssssccssscssscccccssscsssccccssssssscsssscssscsssssssssssssssssssssccssscssscccccssscsssccccsssssscsssscssscsssssssssssssssssssssccssscsssssscccssscsssccccssssssscsssssssscsssssssssssssssssssssssssssssssssscsssssssssssssssssssssssssssssssssssssssssssssssssssssssssssssssssssssssscssssssscssssssssssssssssssssssssssssssscsssssssssssssssssssssssssssssssssssssssssssssssssssssssscsssssssssccsssssssssss" /></g></svg>
